:SAMPLES-PER-SECOND 25
:FULLY-SPECIFIED
:DEGREES
312
root  22.435 40.0297 -94.8411 0.996563 -71.9208 2.10875
RightUpLeg  -11.3759 -1.42813 -2.50626
RightLeg  10.4935 -9.66991 -2.89115
RightFoot  -2.8396 -0.229206 2.82319
RightToes  2.84633e-005 7.89722e-005 -0.000426369
Spine  2.13996 -1.08582 1.76415
Spine1  4.25462 -2.21564 3.84008
HEad  30.3363 6.09304 -8.55056
LeftShoulder1  -3.88251e-019 0 -3.92111e-022
LeftArm  -34.1636 -4.09175 -83.6182
LeftForeArm  31.7635 2.00391 1.06733
LeftHand  -0.839456 -4.31918 10.3034
RightShoulder  7.45443e-017 -2.42657e-020 1.96277e-018
RightArm  -28.3436 -17.2447 71.836
RightForeArm  30.2626 3.89296 5.95704
RightHand  -1.12328 9.21567 -9.27647
LeftUpLeg  -12.371 -0.901736 -2.55979
LeftLeg  8.2428 2.98604 0.241527
LeftFoot  -2.58698 0.332703 -4.12533
LeftToes  3.91355e-005 3.11907e-005 -4.10385e-006
313
root  22.5987 40.0257 -95.4377 1.90186 -64.5995 1.13767
RightUpLeg  -11.2537 -1.51946 -1.96121
RightLeg  11.5532 -16.2632 -4.3308
RightFoot  -2.95603 -0.189304 2.30836
RightToes  2.84633e-005 7.89722e-005 -0.000426369
Spine  2.03896 -0.932628 2.07827
Spine1  4.05787 -1.94639 3.98188
HEad  29.7223 4.7876 -7.95168
LeftShoulder1  -3.88251e-019 0 -3.92111e-022
LeftArm  -34.2026 -2.95898 -83.8556
LeftForeArm  31.4813 1.97207 1.58311
LeftHand  -0.809583 -4.54048 9.73905
RightShoulder  7.45443e-017 -2.42657e-020 1.96277e-018
RightArm  -28.4144 -17.583 71.9585
RightForeArm  32.0282 3.79097 5.91592
RightHand  -1.24373 9.53542 -10.0202
LeftUpLeg  -12.1677 1.70481 -2.35089
LeftLeg  12.7252 9.89507 1.97584
LeftFoot  -4.78939 -0.000149156 0.548695
LeftToes  3.91355e-005 3.11907e-005 -4.10385e-006
314
root  22.6955 40.0313 -95.9339 2.56513 -57.153 0.311366
RightUpLeg  -10.72 -1.78598 -1.40728
RightLeg  12.2004 -23.2799 -5.80798
RightFoot  -3.12001 -0.16527 1.99349
RightToes  2.84633e-005 7.89722e-005 -0.000426369
Spine  1.89812 -0.858914 2.43213
Spine1  3.77583 -1.81404 4.24133
HEad  28.7745 3.38329 -7.50168
LeftShoulder1  -3.88251e-019 0 -3.92111e-022
LeftArm  -34.3056 -1.70852 -83.7409
LeftForeArm  31.4934 1.96866 1.62759
LeftHand  -0.814787 -4.534 9.80623
RightShoulder  7.45443e-017 -2.42657e-020 1.96277e-018
RightArm  -28.3807 -18.1062 72.0427
RightForeArm  32.1754 3.89443 5.88033
RightHand  -1.2551 10.096 -9.76522
LeftUpLeg  -11.8624 5.58449 -1.89807
LeftLeg  17.2213 14.5646 5.04689
LeftFoot  -7.28639 -0.109597 4.41735
LeftToes  3.91355e-005 3.11907e-005 -4.10385e-006
315
root  22.7549 40.0654 -96.282 2.73478 -49.6467 -0.168662
RightUpLeg  -9.71796 -2.17447 -1.15554
RightLeg  12.5045 -30.0852 -6.9751
RightFoot  -3.05068 -0.143022 1.6861
RightToes  2.84633e-005 7.89722e-005 -0.000426369
Spine  1.74853 -0.87609 2.6845
Spine1  3.46883 -1.83915 4.5349
HEad  27.7362 2.01699 -7.13389
LeftShoulder1  -3.88251e-019 0 -3.92111e-022
LeftArm  -34.5902 -0.210852 -83.3687
LeftForeArm  31.4294 2.00579 1.078
LeftHand  -0.791272 -4.21975 9.82508
RightShoulder  7.45443e-017 -2.42657e-020 1.96277e-018
RightArm  -28.3974 -18.7228 71.9052
RightForeArm  31.2081 4.37562 6.27221
RightHand  -1.19552 10.2325 -9.24534
LeftUpLeg  -10.874 8.04182 -1.14096
LeftLeg  19.8302 19.1632 7.80839
LeftFoot  -8.15665 -0.135174 6.57591
LeftToes  3.91355e-005 3.11907e-005 -4.10385e-006
316
root  22.8548 40.0836 -96.4757 2.98524 -42.4784 -0.483151
RightUpLeg  -9.18599 -2.78571 -1.18005
RightLeg  13.3741 -35.8385 -8.18262
RightFoot  -2.66379 -0.122768 1.38668
RightToes  2.84633e-005 7.89722e-005 -0.000426369
Spine  1.45208 -0.838424 2.73109
Spine1  2.8733 -1.74657 4.75654
HEad  26.8446 1.00895 -6.75372
LeftShoulder1  -3.88251e-019 0 -3.92111e-022
LeftArm  -34.9115 1.50085 -82.9166
LeftForeArm  30.9898 2.04351 0.713625
LeftHand  -0.74813 -4.0389 9.47401
RightShoulder  7.45443e-017 -2.42657e-020 1.96277e-018
RightArm  -28.4193 -19.4584 71.66
RightForeArm  30.5625 4.92589 6.81226
RightHand  -1.23553 10.3767 -9.45813
LeftUpLeg  -9.41339 9.30083 -0.648025
LeftLeg  18.6006 21.66 7.97663
LeftFoot  -7.45538 -0.118151 4.80418
LeftToes  3.91355e-005 3.11907e-005 -4.10385e-006
317
root  23.0353 40.1003 -96.536 3.33267 -35.9631 -0.748594
RightUpLeg  -8.81146 -3.76146 -1.44685
RightLeg  14.3948 -41.0583 -9.39202
RightFoot  -2.35478 -0.120544 1.33001
RightToes  2.84633e-005 7.89722e-005 -0.000426369
Spine  1.1 -0.680468 2.59298
Spine1  2.1751 -1.41096 4.9111
HEad  25.8613 -0.511027 -6.50488
LeftShoulder1  -3.88251e-019 0 -3.92111e-022
LeftArm  -35.2491 3.13561 -82.5809
LeftForeArm  30.3274 2.04036 0.977617
LeftHand  -0.76085 -4.07491 9.59518
RightShoulder  7.45443e-017 -2.42657e-020 1.96277e-018
RightArm  -28.3191 -20.1297 71.2636
RightForeArm  30.5147 5.24811 7.24757
RightHand  -1.28376 10.3702 -9.8139
LeftUpLeg  -7.5705 6.21626 -0.0686736
LeftLeg  13.8625 23.5721 4.97961
LeftFoot  -6.60979 -0.0249844 1.55758
LeftToes  3.91355e-005 3.11907e-005 -4.10385e-006
318
root  23.2695 40.1521 -96.4831 3.20388 -30.2578 -0.897497
RightUpLeg  -7.61481 -4.52342 -2.04718
RightLeg  14.5161 -45.7382 -9.76322
RightFoot  -1.99155 -0.149827 1.66316
RightToes  2.84633e-005 7.89722e-005 -0.000426369
Spine  0.916191 -0.414172 2.42514
Spine1  1.81862 -0.860522 5.06421
HEad  24.7594 -2.98183 -6.60219
LeftShoulder1  -3.88251e-019 0 -3.92111e-022
LeftArm  -35.7093 4.55534 -82.43
LeftForeArm  29.5062 2.04111 1.26206
LeftHand  -0.771356 -4.16319 9.63925
RightShoulder  7.45443e-017 -2.42657e-020 1.96277e-018
RightArm  -28.208 -20.443 70.5735
RightForeArm  30.8766 5.38676 7.56947
RightHand  -1.28439 9.82332 -10.1511
LeftUpLeg  -5.55832 2.05943 0.0595003
LeftLeg  8.31548 22.7721 1.86291
LeftFoot  -5.56749 -0.0122735 0.880118
LeftToes  3.91355e-005 3.11907e-005 -4.10385e-006
319
root  23.5301 40.2217 -96.3651 2.68813 -25.1655 -0.871851
RightUpLeg  -6.002 -5.14766 -2.91586
RightLeg  14.4262 -49.5217 -9.70547
RightFoot  -1.40857 -0.164919 1.78871
RightToes  2.84633e-005 7.89722e-005 -0.000426369
Spine  0.857861 -0.118968 2.32531
Spine1  1.71405 -0.26652 5.1219
HEad  23.6695 -5.00963 -6.70698
LeftShoulder1  -3.88251e-019 0 -3.92111e-022
LeftArm  -36.2265 5.7159 -82.2952
LeftForeArm  28.9879 2.03909 1.49051
LeftHand  -0.744696 -4.22069 9.26398
RightShoulder  7.45443e-017 -2.42657e-020 1.96277e-018
RightArm  -28.1075 -20.4265 69.8651
RightForeArm  31.3291 5.44874 7.67916
RightHand  -1.31521 9.33486 -10.7057
LeftUpLeg  -3.92634 0.801867 -0.659001
LeftLeg  4.66363 18.4907 0.880092
LeftFoot  -4.00052 -0.089064 1.75294
LeftToes  3.91355e-005 3.11907e-005 -4.10385e-006
320
root  23.8215 40.261 -96.2276 2.351 -20.4258 -0.686835
RightUpLeg  -5.01667 -6.78178 -4.00104
RightLeg  15.8127 -52.568 -10.7298
RightFoot  -1.30962 -0.131965 1.39758
RightToes  2.84633e-005 7.89722e-005 -0.000426369
Spine  0.766353 0.107338 2.11278
Spine1  1.53924 0.189719 4.96661
HEad  22.2919 -6.03037 -6.42124
LeftShoulder1  -3.88251e-019 0 -3.92111e-022
LeftArm  -36.6339 6.79242 -81.9735
LeftForeArm  29.1378 2.00672 2.00685
LeftHand  -0.753893 -4.11542 9.47249
RightShoulder  7.45443e-017 -2.42657e-020 1.96277e-018
RightArm  -27.8701 -20.4003 69.4143
RightForeArm  31.1407 5.69257 7.84432
RightHand  -1.30444 9.35484 -10.6085
LeftUpLeg  -2.79626 0.192508 -1.72184
LeftLeg  2.17726 14.2618 0.670319
LeftFoot  -2.42385 -0.142215 2.01466
LeftToes  3.91355e-005 3.11907e-005 -4.10385e-006
321
root  24.1447 40.2454 -96.0841 2.3798 -16.2619 -0.534345
RightUpLeg  -4.71653 -9.468 -5.03113
RightLeg  16.7039 -51.907 -10.8038
RightFoot  -2.36244 -0.162133 1.85921
RightToes  2.84633e-005 7.89722e-005 -0.000426369
Spine  0.6399 0.276082 1.86469
Spine1  1.29086 0.535403 4.73776
HEad  20.2976 -7.00496 -6.06287
LeftShoulder1  -3.88251e-019 0 -3.92111e-022
LeftArm  -36.9796 8.27509 -81.4034
LeftForeArm  29.2378 1.99116 2.27114
LeftHand  -0.763667 -3.94924 9.75165
RightShoulder  7.45443e-017 -2.42657e-020 1.96277e-018
RightArm  -27.3092 -20.4677 69.1153
RightForeArm  29.9243 6.47447 8.54326
RightHand  -1.18699 9.58043 -9.55639
LeftUpLeg  -2.2738 -0.233213 -2.58704
LeftLeg  0.401149 10.5566 0.354047
LeftFoot  -1.53411 -0.189757 2.31983
LeftToes  3.91355e-005 3.11907e-005 -4.10385e-006
